<?xml version="1.0" encoding="UTF-8"?>
<svg id="Layer_1" xmlns="http://www.w3.org/2000/svg" version="1.1" viewBox="0 0 76.6 89.6">
  <!-- Generator: Adobe Illustrator 30.5.1, SVG Export Plug-In . SVG Version: 2.1.4 Build 3)  -->
  <rect x="41.8" y="34.5" width="7" height="7"/>
  <rect x="27.8" y="34.5" width="7" height="7"/>
  <path d="M38.3,0C17.1,0,0,17.2,0,38.3c0,16.9,10.9,31.2,26.1,36.3l12.2,15,12.2-14.9c15.2-5.1,26.1-19.4,26.1-36.3C76.6,17.2,59.5,0,38.3,0ZM55.8,41.5h-7v7h-7v-7h-7v7h-7v-7h-7v-7h7v-7h7v7h7v-7h7v7h7v7Z"/>
</svg>